<svg width="58" height="55" viewBox="0 0 58 55" fill="none" xmlns="http://www.w3.org/2000/svg">
<path d="M6.90756 13.2435C10.7225 13.2435 13.8151 10.2789 13.8151 6.62176C13.8151 2.96466 10.7225 0 6.90756 0C3.09262 0 0 2.96466 0 6.62176C0 10.2789 3.09262 13.2435 6.90756 13.2435Z" fill="#D9D9D9"/>
<path d="M20.3367 18.259V54.9964H32.2355V36.829C32.2355 32.0352 33.1763 27.3927 39.3767 27.3927C45.4918 27.3927 45.5676 32.8735 45.5676 37.1316V54.9995H57.4727V34.8527C57.4727 24.9564 55.2502 17.3511 43.1841 17.3511C37.3909 17.3511 33.5078 20.3987 31.9198 23.2828H31.7588V18.259H20.3367ZM0.946289 18.259H12.864V54.9964H0.946289V18.259Z" fill="#D9D9D9"/>
</svg>
