<svg width="52" height="55" viewBox="0 0 52 55" fill="none" xmlns="http://www.w3.org/2000/svg">
<path fill-rule="evenodd" clip-rule="evenodd" d="M25.8624 15.4932C19.1174 15.4932 13.6494 20.8689 13.6494 27.5002C13.6494 34.1315 19.1174 39.5073 25.8624 39.5073C32.6074 39.5073 38.0754 34.1315 38.0754 27.5002C38.0754 20.8689 32.6074 15.4932 25.8624 15.4932ZM18.5346 27.5002C18.5346 31.4791 21.8153 34.7044 25.8624 34.7044C29.9096 34.7044 33.1902 31.4791 33.1902 27.5002C33.1902 23.5213 29.9096 20.296 25.8624 20.296C21.8153 20.296 18.5346 23.5213 18.5346 27.5002Z" fill="#89EA2B"/>
<path d="M40.2309 10.0703C39.0406 10.0703 38.0757 11.2842 38.0757 12.7816C38.0757 14.279 39.0406 15.4928 40.2309 15.4928C41.4213 15.4928 42.3862 14.279 42.3862 12.7816C42.3862 11.2842 41.4213 10.0703 40.2309 10.0703Z" fill="#89EA2B"/>
<path fill-rule="evenodd" clip-rule="evenodd" d="M9.40466 0C4.21061 0 0 4.47715 0 10V45C0 50.5228 4.21061 55 9.40466 55H42.321C47.5149 55 51.7256 50.5228 51.7256 45V10C51.7256 4.47715 47.5149 0 42.321 0H9.40466ZM42.321 5H9.40466C6.80763 5 4.70233 7.23857 4.70233 10V45C4.70233 47.7615 6.80763 50 9.40466 50H42.321C44.9181 50 47.0233 47.7615 47.0233 45V10C47.0233 7.23857 44.9181 5 42.321 5Z" fill="#89EA2B"/>
</svg>
