<svg width="49" height="55" viewBox="0 0 49 55" fill="none" xmlns="http://www.w3.org/2000/svg">
<path d="M48.593 22.5546C43.8164 22.566 39.1568 21.0907 35.2727 18.3373V37.5406C35.2714 41.0972 34.1737 44.5687 32.1264 47.4909C30.079 50.413 27.1797 52.6465 23.816 53.8927C20.4523 55.139 16.7845 55.3385 13.3032 54.4646C9.82195 53.5908 6.693 51.6852 4.3348 49.0027C1.97659 46.3203 0.501525 42.9887 0.10684 39.4536C-0.287844 35.9185 0.416664 32.3483 2.12616 29.2204C3.83566 26.0925 6.46866 23.556 9.6731 21.9501C12.8775 20.3442 16.5007 19.7454 20.058 20.2337V29.8923C18.4302 29.3852 16.6822 29.4005 15.0636 29.936C13.445 30.4714 12.0387 31.4997 11.0454 32.8739C10.0522 34.2481 9.52274 35.898 9.53279 37.588C9.54284 39.2779 10.0918 40.9215 11.1014 42.2841C12.1109 43.6466 13.5294 44.6584 15.1542 45.1749C16.7791 45.6914 18.5271 45.6863 20.1488 45.1603C21.7706 44.6342 23.183 43.6142 24.1844 42.2458C25.1858 40.8773 25.7249 39.2306 25.7249 37.5406V0H35.2727C35.2661 0.798497 35.3336 1.59591 35.4745 2.38215C35.8063 4.13731 36.4961 5.80699 37.5019 7.28906C38.5076 8.77113 39.808 10.0344 41.3237 11.0017C43.4799 12.4137 46.008 13.1663 48.593 13.1657V22.5546Z" fill="#07F8F2"/>
</svg>
