<svg width="51" height="50" viewBox="0 0 51 50" fill="none" xmlns="http://www.w3.org/2000/svg">
<g clip-path="url(#clip0_418_444)">
<path d="M50.6351 38.7224C49.9119 38.9976 49.1086 38.997 48.3768 38.7207C47.6449 38.4444 47.0352 37.9115 46.6625 37.2225L39.312 27.2836L38.2475 25.8941L30.094 37.235C29.7652 37.895 29.2052 38.4088 28.5188 38.6803C27.8323 38.9517 27.0663 38.9622 26.364 38.7099L36.8733 24.2942L26.6639 11.2721C27.3784 11.0131 28.1643 11.0097 28.8895 11.2624C29.6146 11.5151 30.2345 12.0085 30.645 12.6595L38.26 22.7214L45.5873 12.7012C45.9189 12.0529 46.4793 11.5529 47.1618 11.2964C47.8444 11.0398 48.6016 11.0445 49.2895 11.3096L45.4948 16.4572L40.3528 23.2963C40.209 23.4265 40.0949 23.586 40.0179 23.7644C39.9409 23.9429 39.9027 24.1362 39.9059 24.3317C39.9091 24.5272 39.9536 24.7205 40.0365 24.8989C40.1194 25.0774 40.2387 25.2369 40.3868 25.367L50.6143 38.7245L50.6351 38.7224ZM0.399573 24.115L1.20365 19.7924C3.46759 11.2451 13.2092 7.68905 20.0377 12.9804C24.0365 16.0822 25.094 20.4736 24.9815 25.4233H2.74187C2.52647 34.2623 8.9932 39.5994 17.1047 36.8725C18.4191 36.3966 19.5896 35.6002 20.5112 34.5546C21.4328 33.509 22.0768 32.2468 22.3856 30.8812C22.7941 29.4938 23.5006 29.2563 24.8113 29.6563C24.6218 31.3487 24.0501 32.9697 23.1393 34.3975C22.2284 35.8253 21.0022 37.0227 19.5528 37.8995C17.1566 39.222 14.3911 39.7462 11.6516 39.3971C8.91212 39.048 6.33898 37.8435 4.30009 35.9559C2.27808 33.7214 1.03187 30.8989 0.751566 27.9189C0.743534 27.4294 0.569348 26.9711 0.449637 26.5315C0.426291 25.7268 0.408226 24.9219 0.395441 24.1171L0.399573 24.115ZM2.73771 23.5192H22.8502C22.6201 17.1113 18.5018 12.5658 13.1073 12.5241C7.10179 12.4408 2.87889 16.8863 2.72265 23.4901L2.73771 23.5192Z" fill="white"/>
</g>
<defs>
<clipPath id="clip0_418_444">
<rect width="50" height="50" fill="white" transform="matrix(1 0 0.0164056 0.999933 0 0)"/>
</clipPath>
</defs>
</svg>
