<svg width="80" height="57" viewBox="0 0 80 57" fill="none" xmlns="http://www.w3.org/2000/svg">
<g clip-path="url(#clip0_418_456)">
<path d="M54.2145 13.0648C53.8359 13.0648 53.5797 13.0981 53.3138 13.1432L53.3143 13.1741H53.3604C53.5422 13.421 53.848 13.6015 54.0755 13.8224C54.2574 14.0765 54.413 14.3306 54.5949 14.5823L54.6404 14.5467C54.9472 14.39 55.0945 14.1382 55.0882 13.7559C54.9547 13.6443 54.9331 13.5327 54.8194 13.4234C54.6852 13.2643 54.4008 13.1859 54.221 13.0601L54.2145 13.0648ZM19.7217 44.3984H16.6703C16.5271 40.8998 16.1732 37.4055 15.6097 33.9254H15.5834L11.114 44.3984H8.79334L4.01318 33.9254H3.98027C3.67699 37.4109 3.52024 40.9036 3.51022 44.3984H0.72876C0.8332 39.7295 1.21231 35.3503 1.86288 31.2656H5.64829L10.201 40.9169H10.2273L14.5029 31.2656H18.1073C18.9823 36.0509 19.5216 40.4325 19.7316 44.3984H19.7217ZM32.7853 34.7091C31.6208 39.5656 30.0395 43.0994 28.0479 45.3009C26.4893 47.0013 24.7652 47.8491 22.879 47.8491C22.3754 47.8491 21.7581 47.7398 21.0106 47.5214L20.9913 46.3482C21.3541 46.3886 21.7823 46.4099 22.2629 46.4099C23.1451 46.4099 23.8499 46.2318 24.384 45.8827C25.0254 45.4552 25.3401 44.9755 25.3315 44.4459C25.3254 44.0778 25.0597 43.3298 24.5376 42.2041L21.0769 34.7091H24.0723L26.5573 40.3137C27.118 41.5866 27.3597 42.4748 27.2758 42.9807C28.551 40.4538 29.4208 37.6919 29.8887 34.7091H32.7853ZM73.5141 44.3984H64.857L64.6415 31.2656H67.5547L67.7436 42.7836H73.4876L73.5141 44.3984ZM62.591 44.7191L59.2272 43.5316C59.5205 43.3511 59.8037 43.1564 60.0568 42.9379C61.4624 41.7363 62.1408 39.9504 62.1021 37.5874C62.0308 33.2414 59.6316 31.0661 54.9015 31.0661C52.5842 31.0661 50.7828 31.6171 49.4974 32.7214C48.1018 33.9278 47.4199 35.7042 47.4585 38.0529C47.4964 40.3612 48.1496 42.0569 49.4313 43.135C50.5993 44.1087 52.342 44.5956 54.666 44.5956C55.535 44.5956 56.3303 44.5172 57.0486 44.3628L61.4401 46.1962L62.6009 44.7191H62.591ZM51.7065 41.7695C50.9518 40.9146 50.5605 39.5372 50.5295 37.6468C50.4753 34.3386 51.8438 32.6834 54.6285 32.6834C56.0867 32.6834 57.1696 33.08 57.864 33.8708C58.6154 34.7305 59.0064 36.0936 59.0371 37.9626C59.0918 41.2969 57.7236 42.9688 54.9388 42.9688C53.474 42.9688 52.3977 42.5722 51.7001 41.7814L51.7065 41.7695ZM46.2323 40.7602C46.2506 41.8764 45.6995 42.7931 44.5789 43.5055C43.4582 44.218 41.9532 44.5742 40.0407 44.5742C38.2534 44.5742 36.5317 44.1657 34.8429 43.3511L35.6044 42.2207C37.0548 42.7432 38.3592 42.9997 39.5343 42.9997C40.6271 42.9997 41.4834 42.8263 42.1031 42.4772C42.4129 42.3072 42.6617 42.0862 42.8292 41.8324C42.9966 41.5786 43.078 41.2991 43.0667 41.0167C43.0538 40.233 42.2858 39.568 40.9007 39.0099C39.6153 38.5041 37.0469 37.4497 37.0469 37.4497C35.6459 36.7206 34.9418 35.9393 34.9207 34.6545C34.9032 33.5858 35.406 32.7309 36.4255 32.0778C37.4516 31.4176 38.7794 31.0922 40.4252 31.0922C42.1105 31.0922 43.6563 31.4152 45.0495 32.0659L44.3669 33.1963C43.2565 32.8462 42.0623 32.6605 40.8556 32.6501C39.9241 32.6501 39.2059 32.8116 38.7109 33.1393C38.4595 33.2911 38.2579 33.4812 38.1204 33.6962C37.9829 33.9112 37.9128 34.1459 37.915 34.3837C37.9278 35.1627 38.709 35.8324 40.1404 36.4024C41.4424 36.913 44.0737 37.9935 44.0737 37.9935C45.5109 38.7178 46.2312 39.4897 46.2522 40.7673L46.2323 40.7602ZM76.8867 26.8626C75.1251 26.8294 73.7612 26.9576 72.6248 27.3091C72.2972 27.4041 71.7705 27.4041 71.7293 27.7057C71.9124 27.8316 71.9422 28.0382 72.0998 28.2139C72.3683 28.5321 72.8295 28.9572 73.2545 29.1805C73.7197 29.4417 74.1846 29.6934 74.6722 29.9167C75.5342 30.2966 76.509 30.5223 77.3546 30.9046C77.8356 31.1278 78.3274 31.4104 78.8152 31.6479C79.0574 31.7667 79.2156 31.9804 79.5263 32.0564L79.5255 32.0089C79.3717 31.8664 79.3223 31.6598 79.1715 31.5007C78.9484 31.3416 78.7255 31.1991 78.5057 31.0423C77.8493 30.4279 77.0692 29.8875 76.1917 29.4393C75.4816 29.0926 73.9331 28.6081 73.6339 28.0263L73.5906 27.9931C74.0706 27.9622 74.6413 27.8363 75.1006 27.7413C75.8455 27.5988 76.5306 27.6297 77.3019 27.4896C77.6498 27.4255 78.0007 27.3471 78.3516 27.2664L78.3492 27.1239C77.9495 26.8389 77.6469 26.4518 77.2344 26.1858C76.0833 25.4673 74.8576 24.8139 73.5683 24.2313C72.8719 23.9131 71.9929 23.7088 71.261 23.4381C70.9961 23.3431 70.5543 23.2956 70.4003 23.1365C69.9996 22.7898 69.7616 22.3291 69.475 21.9158C68.8138 21.0112 68.1981 20.09 67.6292 19.1539C67.224 18.5317 66.9735 17.9119 66.4803 17.3419C64.1647 14.6417 61.679 13.0054 57.8706 11.4048C57.0521 11.0723 56.0754 10.9298 55.0423 10.7541C54.4922 10.7351 53.9421 10.7066 53.3954 10.69C53.0315 10.5784 52.6776 10.2767 52.3658 10.1319C51.1056 9.56192 47.8464 8.327 46.9515 9.96089C46.3759 10.9916 47.864 12.008 48.3827 12.5305C48.7672 12.8938 49.2514 13.3094 49.5214 13.7179C49.6806 13.9934 49.7281 14.276 49.8875 14.5633C50.2478 15.2615 50.5931 16.0405 51.0646 16.6936C51.3104 17.026 51.5794 17.3751 51.8938 17.6744C52.0744 17.8477 52.3785 17.9285 52.4523 18.2135C52.1482 18.5364 52.1362 19.0067 51.9649 19.4009C51.2044 21.1986 51.5503 23.4215 52.6911 24.7443C53.0498 25.1385 53.9035 26.0124 55.0205 25.6776C56.0033 25.3926 55.7713 24.4902 56.0413 23.6946C56.104 23.5046 56.0591 23.3787 56.192 23.2505L56.1926 23.2861C56.5093 23.7326 56.8257 24.1577 57.1161 24.6042C57.807 25.3831 59.0052 26.1906 60.0049 26.7296C60.5362 27.0146 60.9624 27.5086 61.6236 27.6843L61.6228 27.6368H61.5734C61.4296 27.4991 61.2409 27.4326 61.0613 27.321C60.6391 27.0262 60.2487 26.7086 59.8937 26.371C58.9512 25.4568 58.113 24.4894 57.3873 23.4785C57.0171 22.9798 56.7054 22.4431 56.4077 21.9515C56.2729 21.7615 56.2682 21.4765 56.0461 21.3815C55.7226 21.7282 55.2437 22.0298 55.0104 22.4573C54.6036 23.1413 54.5746 23.9819 54.431 24.8559C54.3424 24.8725 54.3849 24.8559 54.3426 24.8891C53.6362 24.7656 53.3873 24.2384 53.1167 23.7967C52.4398 22.6687 52.3015 20.8567 52.8496 19.5576C52.9989 19.2251 53.64 18.1755 53.3714 17.8572C53.2282 17.5556 52.7909 17.3823 52.5466 17.1377C52.2323 16.8193 51.9621 16.4796 51.7399 16.1236C51.1987 15.2354 50.9192 14.2522 50.3319 13.364C50.0618 12.9532 49.594 12.5233 49.2125 12.1457C48.7875 11.7183 48.3217 11.4167 47.9809 10.9108C47.8695 10.7375 47.71 10.4501 47.8814 10.2601C47.9254 10.1319 48.0167 10.082 48.1873 10.0464C48.4741 9.8754 49.2908 10.0986 49.5788 10.1936C50.3957 10.4311 51.0841 10.6543 51.7709 10.9868C52.0829 11.1436 52.4203 11.4452 52.8166 11.5235H53.2774C53.9836 11.6352 54.7756 11.5568 55.4363 11.6969C56.6093 11.9676 57.6691 12.3619 58.6208 12.7893C61.5537 14.1309 63.9521 16.0038 65.573 18.2182C65.8423 18.5839 65.963 18.9188 66.2095 19.2988C66.6832 20.0825 67.2657 20.8733 67.7455 21.6309C68.2186 22.3789 68.6755 23.1413 69.3473 23.7611C69.6819 24.0936 71.008 24.2669 71.6034 24.4403C72.0435 24.5828 72.727 24.7134 73.1248 24.8868C73.8874 25.2192 74.631 25.5992 75.3479 25.9649C75.713 26.1454 76.8156 26.542 76.8867 26.8626Z" fill="#E48E00"/>
</g>
<defs>
<clipPath id="clip0_418_456">
<rect width="79" height="57" fill="white" transform="matrix(1 0 0.0164056 0.999933 0 0)"/>
</clipPath>
</defs>
</svg>
