<svg width="51" height="50" viewBox="0 0 51 50" fill="none" xmlns="http://www.w3.org/2000/svg">
<g clip-path="url(#clip0_418_440)">
<rect width="50" height="50" rx="25" transform="matrix(1 0 0.0164056 0.999933 0 0)" fill="#03091E"/>
<path d="M25.817 49.9972C25.1483 49.9972 24.4788 49.8222 23.8878 49.4826L17.7117 45.8641C16.7909 45.3537 17.2337 45.1725 17.532 45.0662C18.7438 44.6433 18.988 44.5454 20.278 43.808C20.4121 43.7309 20.5918 43.7601 20.7327 43.8434L25.4785 46.6328C25.6509 46.7265 25.8905 46.7265 26.0452 46.6328L44.1946 36.0585C44.3638 35.9606 44.4689 35.7648 44.4656 35.5627L44.1187 14.4183C44.1153 14.2121 44.0017 14.0183 43.825 13.9142L25.3371 3.34821C25.1667 3.2503 24.9417 3.2503 24.7725 3.34821L6.63548 13.9163C6.46007 14.0183 6.35085 14.2183 6.35414 14.4183L6.70105 35.5627C6.70436 35.7648 6.82001 35.9564 6.99866 36.0523L12.065 38.9521C14.8103 40.3145 16.4527 38.7104 16.4262 37.098L16.0837 16.2223C16.0789 15.9265 16.3126 15.6953 16.6084 15.6953H18.9313C19.2209 15.6953 19.4664 15.9286 19.4712 16.2223L19.8137 37.098C19.8734 40.7332 17.9284 42.8164 14.4826 42.8164C13.4242 42.8164 12.5888 42.8164 10.2429 41.6686L5.3892 38.9042C4.19046 38.2188 3.43607 36.9355 3.41355 35.5627L3.06664 14.4183C3.04411 13.0455 3.75847 11.7622 4.93268 11.0789L23.0819 0.492154C24.2316 -0.164051 25.7711 -0.164051 26.9319 0.492154L45.4264 11.0789C46.6252 11.7643 47.3837 13.0455 47.4062 14.4183L47.7531 35.5627C47.7757 36.9355 47.0591 38.2146 45.883 38.9042L27.7357 49.4826C27.1579 49.8222 26.4962 49.9972 25.817 49.9972ZM40.2688 29.1506C40.2038 25.1926 37.5115 24.1385 31.8681 23.3948C26.1662 22.6427 25.5806 22.2532 25.5588 20.922C25.5407 19.8221 26.0062 18.3535 30.2208 18.3535C33.9854 18.3535 35.3862 19.1638 35.9986 21.7011C36.0526 21.9407 36.2742 22.1157 36.52 22.1157H38.8971C39.045 22.1157 39.1835 22.0511 39.2818 21.947C39.38 21.8345 39.4318 21.6907 39.4147 21.5387C38.9743 17.1681 36.0367 15.1308 30.1679 15.1308C24.9429 15.1308 21.8624 17.3348 21.9231 21.0324C21.9889 25.0426 25.107 26.1508 30.1298 26.6466C36.1394 27.2341 36.6184 28.1111 36.6377 29.2902C36.6713 31.338 35.0419 32.2109 31.1815 32.2109C26.3336 32.2109 25.2469 30.9943 24.849 28.5819C24.8031 28.3236 24.5792 28.134 24.3146 28.134H21.9458C21.6521 28.134 21.4205 28.3674 21.4253 28.6611C21.476 31.7484 23.2155 35.4273 31.2342 35.4273C37.0426 35.4294 40.3343 33.1441 40.2688 29.1506Z" fill="#8BC500"/>
</g>
<defs>
<clipPath id="clip0_418_440">
<rect width="50" height="50" rx="25" transform="matrix(1 0 0.0164056 0.999933 0 0)" fill="white"/>
</clipPath>
</defs>
</svg>
