<svg width="49" height="50" viewBox="0 0 49 50" fill="none" xmlns="http://www.w3.org/2000/svg">
<path d="M47.3056 30.619C47.2821 30.5318 47.2475 30.4486 47.2027 30.3713C46.9449 29.8239 46.2506 29.6604 45.1319 29.8886C41.6464 30.598 40.338 30.1614 39.8726 29.8489C42.9155 25.5892 45.5119 20.4445 47.0322 15.6451C47.7244 13.46 49.1203 8.31692 47.8577 5.80485C47.7777 5.63291 47.6819 5.46935 47.5717 5.31612C45.0842 1.88962 41.2483 0.0515794 36.4788 0.00104277C33.3667 -0.0318164 30.6651 0.720826 29.929 0.998049C29.5763 0.931606 29.2211 0.875017 28.8641 0.828346C27.9717 0.665319 27.0631 0.576426 26.1474 0.562561C23.6867 0.524294 21.5243 1.11202 19.6923 2.31075C17.945 1.64296 9.91406 -1.11035 4.63712 2.47463C1.68993 4.47676 0.175451 8.05529 0.13548 13.111C0.121995 14.8122 0.789269 20.0447 2.03063 25.056C2.80679 28.189 3.66027 30.6751 4.58471 32.5055C5.61684 34.5731 6.7381 35.819 7.94026 36.2271C8.85435 36.5372 10.2827 36.5268 11.8991 34.7133C13.6845 32.7095 15.4325 30.9161 16.2166 30.1236C17.0947 30.6133 18.0612 30.8775 19.067 30.908C19.067 30.9109 19.0671 30.9137 19.0673 30.9166C18.8798 31.1252 18.6958 31.337 18.5155 31.5517C17.7575 32.4464 17.5998 32.6325 15.3002 33.0996C14.6463 33.2327 12.9087 33.5861 12.814 34.7873C12.794 35.0419 12.8547 35.2675 12.966 35.4669C13.3877 36.3469 14.8125 36.7349 15.0042 36.7836C17.7442 37.4772 20.2106 36.9749 22.1099 35.3721C21.8053 40.0119 21.7384 44.559 22.2156 45.9524C22.6098 47.1022 23.5729 49.9131 27.1301 49.9127C27.6519 49.9127 28.23 49.8522 28.8697 49.717C32.6281 48.9224 34.3352 47.2846 35.1683 43.6736C35.5864 41.8628 36.3518 37.6939 36.7856 35.1444C36.8293 34.9982 36.8745 34.8934 36.9208 34.8611C36.9223 34.8601 37.0716 34.7632 37.8071 34.925C37.8371 34.9316 37.8677 34.9363 37.8985 34.9391L38.4248 34.9855L38.4557 34.9876C40.2152 35.0674 42.455 34.691 43.781 34.0916C45.1583 33.4702 47.6674 31.9448 47.3056 30.619ZM3.50652 24.6995C2.25144 19.6338 1.64196 14.54 1.65315 13.1117C1.68889 8.5958 2.96646 5.45234 5.45 3.76821C9.43313 1.06751 15.5982 2.64351 18.1907 3.49785C18.1836 3.5045 18.1762 3.51053 18.1691 3.51739C13.7063 7.76829 13.385 15.0306 13.3696 15.4746C13.3593 15.6458 13.3594 15.8883 13.36 16.2218C13.3617 17.4433 13.3648 19.7166 12.8548 22.2912C12.3808 24.6837 12.9837 27.0255 14.5087 28.7158C14.6665 28.8907 14.8324 29.055 15.0047 29.2096C14.2374 29.982 12.5683 31.6898 10.7808 33.6967C9.51575 35.1161 8.71487 34.8441 8.45151 34.7546C7.65083 34.4828 6.8286 33.5337 6.03168 32.0047C5.13374 30.2598 4.26951 27.7793 3.50652 24.6995ZM15.4078 35.2791C15.0565 35.1901 14.74 35.0437 14.5287 34.9106C14.7187 34.8287 15.0342 34.723 15.5526 34.6176C18.258 34.0683 18.6934 33.6805 19.6614 32.5375C19.8833 32.2754 20.1346 31.9787 20.48 31.617C20.5543 31.5389 20.612 31.4469 20.6492 31.3471C21.0233 31.0324 21.23 31.1185 21.5644 31.2603C21.8816 31.3947 22.1743 31.8011 22.2769 32.2486C22.3253 32.4599 22.3703 32.8611 22.1291 33.1728C20.0924 35.8053 17.35 35.7712 15.4078 35.2791ZM20.2514 26.9853L20.125 27.2786C19.8049 28.0202 19.5072 28.7096 19.3094 29.3645C17.9193 29.3601 16.6007 28.7672 15.6344 27.6957C14.4053 26.3333 13.9211 24.4381 14.3058 22.4957C14.8445 19.7756 14.8413 17.4071 14.8394 16.1347C14.8394 15.9565 14.839 15.8005 14.8406 15.6774C15.4882 15.1323 18.4314 13.6056 20.4398 14.071C21.3564 14.2836 21.8858 14.9148 22.058 16.001C22.9497 21.6241 21.7571 23.9677 20.7987 25.851C20.6012 26.2391 20.4147 26.6058 20.2514 26.9853ZM35.0408 36.4947C34.9842 36.8624 34.9208 37.2767 34.8401 37.734L34.4831 38.6456C34.4547 38.7178 34.4376 38.7934 34.4322 38.8695C34.3626 39.8568 34.2414 40.219 34.0877 40.6774C33.928 41.1541 33.7468 41.6946 33.5864 42.8767C33.1866 45.818 31.4881 47.5076 28.2421 48.1934C25.0456 48.8695 24.5847 47.1602 24.1787 45.6527C24.1373 45.4946 24.093 45.3375 24.0458 45.1814C23.6677 43.9631 23.818 42.2451 24.0261 39.8676C24.1282 38.7005 24.2037 35.9135 23.6575 34.3643C23.702 33.7545 23.7509 33.1354 23.8047 32.5096C23.8114 32.4303 23.8052 32.3513 23.7864 32.2754C23.7747 32.1293 23.7525 31.9847 23.72 31.8429C23.5163 30.9521 22.9372 30.207 22.2085 29.8981C21.9189 29.7754 21.3874 29.5504 20.7235 29.7174C20.8964 29.1434 21.1759 28.4956 21.4789 27.7939L21.6062 27.4986C21.7495 27.1658 21.9247 26.8212 22.1104 26.4562C23.1133 24.4855 24.4868 21.7867 23.5197 15.6892C23.1576 13.4055 21.5702 12.2904 19.051 12.5493C17.5405 12.7045 16.1321 13.3092 15.4268 13.6559C15.2854 13.7254 15.1452 13.7976 15.0063 13.8724C15.331 11.5714 16.303 7.27125 19.1631 4.55059C19.3756 4.34868 19.5976 4.1571 19.8283 3.97659C19.9389 3.9553 20.0446 3.90951 20.1376 3.84266C21.7739 2.65598 23.7704 2.07367 26.0755 2.11131C26.927 2.12525 27.7416 2.18181 28.512 2.27977C32.5088 3.01681 35.0955 5.28867 36.6326 7.23506C38.213 9.23635 39.0146 11.252 39.3182 12.3393C36.5777 12.0593 34.6708 12.603 33.6415 13.9593C31.4024 16.9102 34.2693 22.6377 35.6473 25.3902C35.8999 25.8947 36.1181 26.3306 36.1839 26.5159C36.6142 27.7273 37.2156 28.5359 37.6547 29.1264C37.7892 29.3073 37.9199 29.4828 38.0179 29.6359C37.1689 29.8761 35.6367 30.4314 35.6124 33.2067C35.5679 33.5318 35.4703 34.1361 35.3403 34.9013C35.2192 35.3332 35.1385 35.8586 35.0408 36.4947ZM37.0916 33.1233C37.1075 31.3939 37.763 31.2131 38.4566 31.0218C38.5525 30.996 38.648 30.9678 38.7428 30.9374C38.8263 31.0152 38.9156 31.0868 39.0099 31.1516C40.1526 31.9346 42.2556 32.0277 45.2579 31.4311C44.8165 31.799 44.1286 32.2617 43.1993 32.6812C42.3226 33.077 40.8764 33.3737 39.5152 33.4374C38.0118 33.5072 37.2627 33.2695 37.0916 33.1233ZM39.3966 13.842C39.342 14.5716 39.203 15.2338 39.0562 15.9253C38.8984 16.669 38.7351 17.4381 38.6509 18.3714C38.5686 19.2798 38.6276 20.2242 38.6846 21.1376C38.7997 22.9823 38.9174 24.8817 37.9264 26.7557C37.795 26.4966 37.68 26.2288 37.5821 25.9538C37.4877 25.6884 37.2745 25.2621 36.9791 24.6723C35.8299 22.3761 33.1381 16.999 34.803 14.8049C35.6591 13.6763 37.6647 13.6276 39.3966 13.842ZM39.0262 28.4284C38.9718 28.3536 38.9168 28.2792 38.8615 28.2051L38.7929 28.1127C40.4505 25.6181 40.2979 23.1501 40.1615 20.9617C40.1055 20.0637 40.0526 19.2156 40.1246 18.419C40.2005 17.5745 40.3544 16.8503 40.5031 16.1499C40.6863 15.2868 40.8733 14.394 40.8971 13.3413C40.9315 13.2308 40.9503 13.1004 40.9447 12.9457C40.908 11.936 39.9287 8.91525 37.7342 6.18045C36.5537 4.70948 34.8115 3.06672 32.3784 1.9389C33.4852 1.71721 34.9713 1.51569 36.6183 1.55229C40.8868 1.64712 44.1756 3.24412 46.3934 6.29899C46.4404 6.36531 46.4828 6.43492 46.5203 6.50737C47.8632 9.32661 45.1877 19.5577 39.0262 28.4284ZM21.3962 15.7086C21.3225 16.0817 20.7017 16.5872 20.0513 16.5872C19.9949 16.5873 19.9388 16.5834 19.8834 16.5756C19.4964 16.5215 19.1164 16.2761 18.8676 15.9193C18.7794 15.7934 18.6384 15.5491 18.6821 15.3278C18.6984 15.2444 18.7483 15.1229 18.8927 15.0183C19.1498 14.8324 19.6405 14.7634 20.1732 14.838C20.8268 14.9297 21.4886 15.2411 21.3962 15.7086ZM37.9678 14.853C37.9813 15.0177 37.8414 15.271 37.6114 15.4981C37.4604 15.6472 37.146 15.9059 36.7347 15.9623C36.6825 15.9695 36.63 15.9731 36.5778 15.9731C35.9663 15.9731 35.4781 15.4856 35.4545 15.2001C35.4258 14.833 36.0422 14.5541 36.6659 14.468C37.2897 14.3819 37.938 14.4863 37.9678 14.853Z" fill="#336791"/>
</svg>
