<svg width="71" height="60" viewBox="0 0 71 60" fill="none" xmlns="http://www.w3.org/2000/svg">
<path d="M42.1144 30.006C42.1281 31.6701 41.4485 33.2661 40.225 34.443C39.0015 35.62 37.3343 36.2815 35.59 36.2823C33.8452 36.2823 32.1664 35.621 30.9229 34.444C29.6795 33.267 28.9733 31.6706 28.9596 30.006C28.946 28.3419 29.6256 26.746 30.8491 25.569C32.0726 24.3921 33.7398 23.7305 35.4841 23.7297C37.2289 23.7297 38.9077 24.391 40.1511 25.568C41.3946 26.745 42.1008 28.3414 42.1144 30.006ZM49.6594 0C45.6991 0 40.5399 2.69465 35.338 7.35975C30.0627 2.71991 24.8566 0.0561384 20.8993 0.0561384C19.693 0.0561384 18.5977 0.317182 17.6516 0.836463C13.6242 3.06235 12.7749 9.99826 14.9353 18.7025C6.00073 21.341 0.209673 25.5598 0.246146 30.006C0.282757 34.469 6.17255 38.699 15.1767 41.3179C13.1771 50.0559 14.1579 57.003 18.2306 59.2261C19.1764 59.751 20.2671 59.998 21.4793 59.998C25.4366 59.998 30.5988 57.3033 35.8006 52.6326C41.0759 57.2753 46.282 59.939 50.2394 59.939C51.4457 59.939 52.5411 59.6864 53.4872 59.1671C57.5116 56.9441 58.3638 50.0081 56.2034 41.3011C65.1058 38.685 70.8968 34.4578 70.8603 30.006C70.8237 25.543 64.9339 21.313 55.9297 18.6885C57.9294 9.95896 56.9485 3.00621 52.8758 0.780325C51.9359 0.263851 50.8481 0.00280692 49.6594 0ZM49.6698 3.05955L49.6699 3.07639C50.3319 3.07639 50.8655 3.19989 51.3146 3.43287C53.283 4.50511 54.1667 8.58357 53.5478 13.8297C53.3995 15.1209 53.1517 16.4823 52.8453 17.8717C50.0153 17.2092 46.9336 16.7012 43.6915 16.3728C41.7287 13.8325 39.6944 11.5252 37.6476 9.50424C42.2976 5.34999 46.6776 3.07077 49.6727 3.06235L49.6698 3.05955ZM20.9244 3.11568C23.902 3.11568 28.3398 5.38368 33.0696 9.51547C31.0678 11.5365 29.0741 13.8297 27.1824 16.37C23.9281 16.6984 20.8517 17.2064 18.0356 17.8801C17.6948 16.5047 17.4397 15.1742 17.2556 13.8943C16.5358 8.65094 17.338 4.57528 19.271 3.48901C19.8279 3.23638 20.4449 3.12972 20.9244 3.11568ZM35.3587 11.6768C36.7082 12.9904 38.059 14.4613 39.3962 16.0668C38.1011 16.0107 36.7768 15.9714 35.4381 15.9714C34.0846 15.9714 32.7462 15.9995 31.4374 16.0668C32.7188 14.4613 34.0455 12.9932 35.3587 11.6768ZM35.4633 19.0478C37.6406 19.0478 39.8098 19.1432 41.9443 19.3088C43.1523 20.9425 44.3317 22.6856 45.4678 24.5297C46.5771 26.3261 47.5865 28.1506 48.5079 29.992C47.6167 31.8305 46.6373 33.669 45.5723 35.4655C44.4694 37.318 43.3275 39.0808 42.1434 40.7144C40.0029 40.8913 37.8324 40.9895 35.6433 40.9895C33.466 40.9895 31.2968 40.8913 29.1623 40.7285C27.9544 39.0948 26.7749 37.3489 25.6388 35.5076C24.5296 33.7111 23.5201 31.8866 22.5988 30.0453C23.4752 28.2012 24.4692 26.3598 25.5343 24.5606C26.6372 22.708 27.7791 20.9509 28.9631 19.3172C31.1036 19.1376 33.2742 19.0422 35.4633 19.0422L35.4633 19.0478ZM24.7741 19.7607C24.0766 20.8189 23.3794 21.9024 22.7294 23.0168C22.0764 24.1115 21.4676 25.2118 20.8881 26.3121C20.0933 24.4708 19.4163 22.635 18.8543 20.847C20.7339 20.426 22.7169 20.0499 24.7741 19.7607ZM46.1348 19.7607C48.1821 20.0499 50.1563 20.4063 52.0459 20.847C51.5309 22.621 50.8838 24.4455 50.1485 26.2728C49.5511 25.1781 48.9242 24.075 48.2385 22.9775C47.5674 21.8772 46.8525 20.8049 46.1378 19.7607H46.1348ZM55.1625 21.6554C56.59 22.0765 57.9473 22.5452 59.2196 23.0533C64.3326 25.1304 67.6502 27.8475 67.6679 30.0032C67.6709 32.1589 64.3979 34.8872 59.3189 36.9503C58.0873 37.4556 56.7376 37.9103 55.3435 38.3341C54.4976 35.6451 53.3977 32.8438 52.0384 29.9695C53.339 27.1149 54.3753 24.3276 55.1625 21.6498L55.1625 21.6554ZM15.7511 21.6666C16.5911 24.3613 17.6939 27.1598 19.0562 30.0313C17.7556 32.8859 16.7134 35.6732 15.9292 38.351C14.5016 37.93 13.1443 37.4584 11.8867 36.9475C6.77379 34.8788 3.45615 32.1589 3.43847 30.0032C3.42079 27.8475 6.69369 25.1135 11.7728 23.0533C13.0044 22.548 14.3541 22.0933 15.7511 21.6666ZM50.2093 33.6803C51.0041 35.5244 51.6812 37.363 52.2431 39.1482C50.3637 39.5888 48.3778 39.9622 46.3205 40.2429C47.018 39.1903 47.7153 38.104 48.3681 36.9924C49.0212 35.8977 49.6269 34.7806 50.2093 33.6803ZM20.949 33.7364C21.5465 34.8367 22.1734 35.9342 22.8591 37.0345C23.5448 38.1292 24.2451 39.2015 24.9597 40.2429C22.9125 39.9566 20.9383 39.5973 19.0487 39.1594C19.5638 37.391 20.2137 35.5609 20.9461 33.7336L20.949 33.7364ZM53.0707 42.1207C53.4116 43.5045 53.6815 44.8378 53.8508 46.1149C54.5706 51.3583 53.7684 55.4339 51.8355 56.523C51.405 56.7756 50.8439 56.8823 50.1819 56.8823C47.2043 56.8823 42.7665 54.6171 38.0367 50.4825C40.0386 48.4615 42.0323 46.1711 43.9239 43.6336C47.1783 43.3024 50.2547 42.7944 53.0707 42.1207ZM18.2641 42.1488C21.094 42.8056 24.1758 43.3136 27.4179 43.642C29.3807 46.1823 31.415 48.4896 33.4617 50.5078C28.803 54.6704 24.4171 56.9497 21.4219 56.9497C20.7745 56.9356 20.2262 56.8093 19.7918 56.5792C17.8235 55.5125 16.9397 51.4313 17.5587 46.1851C17.707 44.8939 17.9577 43.5354 18.2641 42.1488ZM31.6955 43.9452C32.9906 44.0013 34.3149 44.0406 35.6536 44.0406C37.0071 44.0406 38.3456 44.0126 39.6543 43.9452C38.3729 45.5507 37.0462 47.0188 35.733 48.338C34.3835 47.0188 33.0327 45.5507 31.6955 43.9452Z" fill="#59D8FB"/>
</svg>
