<svg width="51" height="50" viewBox="0 0 51 50" fill="none" xmlns="http://www.w3.org/2000/svg">
<path d="M46.4915 24.5497L24.9302 46.2885C24.0893 47.1364 24.1006 48.5135 24.9555 49.3634C25.8103 50.2113 27.1874 50.2113 28.0305 49.3634L49.5917 27.6246C50.4327 26.7746 50.4214 25.3976 49.5665 24.5497C48.7095 23.7018 47.3325 23.7018 46.4915 24.5497ZM41.9474 0.635916L0.979987 41.9408C0.139026 42.7887 0.150322 44.1657 1.00521 45.0157C1.86217 45.8636 3.23925 45.8636 4.08021 45.0157L45.0476 3.71081C45.8886 2.86292 45.8773 1.48589 45.0224 0.635916C44.1654 -0.211972 42.7884 -0.211972 41.9474 0.635916Z" fill="white"/>
</svg>
