<svg width="44" height="29" viewBox="0 0 44 29" fill="none" xmlns="http://www.w3.org/2000/svg">
<path d="M16.5605 0.375C9.89388 0.375 6.91312 3.49978 7.61826 9.74933C8.93236 6.62455 11.4043 5.45276 15.0341 6.23396C17.1052 6.67924 18.9542 7.97211 21.0045 9.4056C24.3415 11.7375 28.2013 14.4365 34.3971 14.4365C41.0638 14.4365 44.0445 11.3117 43.3394 5.06216C42.0253 8.18694 39.5534 9.35873 35.9235 8.57754C33.8525 8.13226 32.0035 6.83938 29.9532 5.40589C26.6182 3.07402 22.7585 0.375 16.5605 0.375ZM9.39712 14.4365C2.73045 14.4365 -0.250315 17.5613 0.454827 23.8108C1.76892 20.686 4.24088 19.5143 7.87069 20.2954C9.94176 20.7407 11.7908 22.0336 13.841 23.4671C17.1781 25.799 21.0379 28.498 27.2337 28.498C33.9004 28.498 36.8811 25.3732 36.176 19.1237C34.8619 22.2484 32.3899 23.4202 28.7601 22.639C26.689 22.1938 24.84 20.9009 22.7898 19.4674C19.4548 17.1355 15.595 14.4365 9.39712 14.4365Z" fill="#38BDF8"/>
</svg>
