<svg width="51" height="50" viewBox="0 0 51 50" fill="none" xmlns="http://www.w3.org/2000/svg">
<g clip-path="url(#clip0_419_5)">
<rect width="50" height="50" rx="5" transform="matrix(1 0 0.0164056 0.999933 0 0)" fill="white"/>
<path d="M2.34375 0C1.04583 0 0.0171576 1.04576 0.0384507 2.34359L0.781831 47.653C0.803124 48.9509 1.86612 49.9966 3.16403 49.9966H48.4765C49.7744 49.9966 50.8031 48.9509 50.7818 47.653L50.0385 2.34359C50.0172 1.04576 48.9542 0 47.6562 0H2.34375ZM38.8499 20.3111C40.1249 20.3111 41.2553 20.3882 42.2433 20.5424C43.175 20.6816 44.0909 20.919 44.9757 21.2507L45.0597 26.3711C44.6329 26.0792 44.1802 25.8275 43.7078 25.6191C43.2206 25.4015 42.7183 25.2204 42.2052 25.0775C41.2333 24.8079 40.232 24.6678 39.2275 24.6608C38.6025 24.6608 38.0347 24.7192 37.5242 24.84C37.069 24.9377 36.6336 25.1079 36.2346 25.3441C35.884 25.5608 35.6174 25.8212 35.4286 26.1232C35.2387 26.4277 35.1431 26.7826 35.1537 27.144C35.1604 27.5523 35.2768 27.921 35.4968 28.246C35.7188 28.571 36.0321 28.8793 36.4348 29.171C36.8376 29.4626 37.3255 29.7459 37.8989 30.0251C38.4722 30.3063 39.1207 30.5959 39.8422 30.8917C40.8281 31.3021 41.7145 31.7395 42.5012 32.1999C43.288 32.6624 43.9653 33.1853 44.5332 33.7686C45.1011 34.3498 45.537 35.0143 45.8451 35.7622C46.1532 36.51 46.3174 37.3787 46.3337 38.3724C46.3562 39.7411 46.1147 40.8931 45.6132 41.8222C45.1235 42.7385 44.4118 43.5152 43.542 44.0825C42.6043 44.6832 41.561 45.1041 40.4645 45.324C39.2894 45.574 38.0477 45.699 36.7414 45.699C35.4559 45.7046 34.1707 45.5903 32.9025 45.3574C31.8055 45.1682 30.7389 44.8223 29.7356 44.3304L29.6458 38.8516C31.5549 40.4538 33.958 41.3392 36.4305 41.3514C37.1243 41.3514 37.7295 41.2889 38.2441 41.1639C38.7608 41.0389 39.1892 40.8639 39.5335 40.6431C39.8756 40.4181 40.1297 40.1556 40.2976 39.8515C40.4829 39.4974 40.5633 39.0964 40.5294 38.6949C40.4955 38.2934 40.3488 37.9079 40.1062 37.5829C39.7899 37.1733 39.4056 36.8208 38.9704 36.5413C38.4305 36.1873 37.8631 35.878 37.2739 35.6164C36.5755 35.2998 35.8711 34.997 35.1611 34.7081C33.2355 33.9102 31.7945 32.9332 30.836 31.7812C29.8796 30.6292 29.3859 29.2355 29.3591 27.6044C29.3382 26.3253 29.5764 25.2275 30.0738 24.3088C30.5713 23.3901 31.2547 22.6339 32.1283 22.0402C33.0525 21.4239 34.0824 20.9801 35.1693 20.7299C36.3729 20.445 37.6084 20.3044 38.8499 20.3111ZM7.37091 20.7028H27.2938L27.3679 25.215H20.2179L20.5475 45.3095H14.8871L14.5574 25.215H7.44494L7.37091 20.7028Z" fill="#3178C6"/>
</g>
<defs>
<clipPath id="clip0_419_5">
<rect width="50" height="50" rx="5" transform="matrix(1 0 0.0164056 0.999933 0 0)" fill="white"/>
</clipPath>
</defs>
</svg>
